<?xml version="1.0" encoding="UTF-8"?>
<svg viewBox="0 0 237 100" version="1.1" xmlns="http://www.w3.org/2000/svg" xmlns:xlink="http://www.w3.org/1999/xlink">
    <title>logo</title>
    <g id="home" stroke="none" stroke-width="1" fill="none" fill-rule="evenodd">
        <g id="Home-2,-approved" transform="translate(-75.000000, -187.000000)" fill="#101820">
            <g id="topnav" transform="translate(0.000000, 137.000000)">
                <path d="M311.551715,123.52283 L311.551715,149.735318 L280.224596,149.735318 L280.224596,148.457501 L310.282049,148.457501 L310.282049,123.52283 L311.551715,123.52283 Z M76.2739602,123.52283 L76.2739602,148.457501 L105.68779,148.457501 L105.68779,149.735318 L75,149.735318 L75,123.52283 L76.2739602,123.52283 Z M151.695309,110.867314 L151.695309,111.428005 L151.009309,111.428005 C150.457568,111.428005 150.139821,111.612132 150.056708,111.980385 C150.00748,112.203671 149.980815,113.314971 149.976712,115.314286 L149.976153,119.897835 C149.976153,120.978301 150.023463,122.270385 150.118723,123.772808 C149.311251,123.6475 148.841983,123.557354 148.71156,123.501093 C148.581137,123.444193 148.456468,123.350851 148.337553,123.219789 C147.678405,122.489675 146.986651,121.679006 146.262291,120.78842 L146.262291,120.78842 L139.858772,112.876725 L139.858772,119.032823 C139.858772,120.434872 139.885624,121.411766 139.939328,121.964146 C139.980884,122.386104 140.05121,122.642474 140.149667,122.734538 C140.248124,122.826601 140.533264,122.893731 141.00445,122.935287 L141.00445,122.935287 L141.577288,122.979401 L141.577288,123.540732 C140.929009,123.499175 140.342744,123.478717 139.819134,123.478717 C139.456634,123.478717 138.623589,123.499175 137.320636,123.540732 L137.320636,123.540732 L137.320636,122.979401 L137.961883,122.979401 C138.347399,122.979401 138.599934,122.926337 138.718849,122.818929 C138.837125,122.712161 138.911926,122.501822 138.941335,122.187272 C139.006547,121.534517 139.039153,120.646489 139.039153,119.523828 L139.039153,119.523828 L139.039153,115.097753 C139.039153,114.265986 139.030841,113.443809 139.01294,112.630583 C139.000793,112.286624 138.954761,112.050712 138.874206,111.922206 C138.79429,111.79498 138.677292,111.68054 138.522575,111.579526 C138.368496,111.478512 138.151764,111.428005 137.873016,111.428005 L137.873016,111.428005 L137.320636,111.428005 L137.320636,110.867314 C138.074405,110.908231 138.65044,110.929968 139.048103,110.929968 C139.475814,110.929968 139.944442,110.908231 140.455266,110.867314 C141.043449,111.585919 141.597108,112.284706 142.116243,112.964313 C142.636017,113.644559 143.174972,114.328641 143.733106,115.017198 L143.733106,115.017198 L146.778869,118.758551 C147.877236,120.099863 148.670004,121.032005 149.156533,121.554976 L149.156533,121.554976 L149.15631,115.543346 C149.152889,113.336741 149.110129,112.127111 149.028028,111.913895 C148.941719,111.690769 148.598399,111.549478 147.998709,111.490659 L147.998709,111.490659 L147.331249,111.428005 L147.331249,110.867314 C148.287046,110.908231 149.029307,110.929968 149.557393,110.929968 C150.109773,110.929968 150.821985,110.908231 151.695309,110.867314 L151.695309,110.867314 Z M193.985001,110.867314 L193.985001,111.428005 L193.297723,111.428005 C192.746621,111.428005 192.428875,111.612132 192.345762,111.980385 C192.296534,112.203671 192.269868,113.314971 192.265766,115.314286 L192.265206,119.897835 C192.265206,120.978301 192.312517,122.270385 192.407777,123.772808 C191.600304,123.6475 191.131037,123.557354 191.000614,123.501093 C190.870191,123.444193 190.745522,123.350851 190.626606,123.219789 C189.967458,122.489675 189.275704,121.679006 188.551345,120.78842 L188.551345,120.78842 L182.147826,112.876725 L182.147826,119.032823 C182.147826,120.434872 182.174677,121.411766 182.228381,121.964146 C182.269937,122.386104 182.340264,122.642474 182.43872,122.734538 C182.537177,122.826601 182.822318,122.893731 183.293503,122.935287 L183.293503,122.935287 L183.866342,122.979401 L183.866342,123.540732 C183.218062,123.499175 182.631798,123.478717 182.108187,123.478717 C181.745688,123.478717 180.912642,123.499175 179.60969,123.540732 L179.60969,123.540732 L179.60969,122.979401 L180.250937,122.979401 C180.636452,122.979401 180.888987,122.926337 181.007902,122.818929 C181.126178,122.712161 181.200979,122.501822 181.230389,122.187272 C181.2956,121.534517 181.328206,120.646489 181.328206,119.523828 L181.328206,119.523828 L181.328206,115.097753 C181.328206,114.265986 181.319895,113.443809 181.301993,112.630583 C181.289846,112.286624 181.243814,112.050712 181.163259,111.922206 C181.083343,111.79498 180.966346,111.68054 180.811628,111.579526 C180.65755,111.478512 180.440817,111.428005 180.16207,111.428005 L180.16207,111.428005 L179.60969,111.428005 L179.60969,110.867314 C180.363459,110.908231 180.939494,110.929968 181.337157,110.929968 C181.764868,110.929968 182.233496,110.908231 182.74432,110.867314 C183.332502,111.585919 183.886161,112.284706 184.405296,112.964313 C184.925071,113.644559 185.464025,114.328641 186.022159,115.017198 L186.022159,115.017198 L189.067922,118.758551 C190.166289,120.099863 190.959057,121.032005 191.445587,121.554976 L191.445587,121.554976 L191.445364,115.543346 C191.441943,113.336741 191.399182,112.127111 191.317082,111.913895 C191.230772,111.690769 190.887453,111.549478 190.287762,111.490659 L190.287762,111.490659 L189.620303,111.428005 L189.620303,110.867314 C190.576099,110.908231 191.31836,110.929968 191.846446,110.929968 C192.398826,110.929968 193.111039,110.908231 193.985001,110.867314 L193.985001,110.867314 Z M176.069406,110.867314 L176.069406,111.428005 L175.460764,111.428005 C174.98894,111.428005 174.686537,111.554592 174.552278,111.807127 C174.418019,112.059023 174.350889,112.945133 174.350889,114.465457 L174.350889,114.465457 L174.350889,117.805312 C174.350889,119.33075 174.274809,120.36007 174.123288,120.891352 C173.971767,121.422635 173.696216,121.902132 173.295357,122.329843 C172.894498,122.757554 172.360019,123.095759 171.69192,123.345097 C171.024461,123.593796 170.238725,123.719104 169.335993,123.719104 C168.403851,123.719104 167.588068,123.607861 166.887363,123.384735 C166.186658,123.162249 165.659212,122.887977 165.306303,122.56128 C164.952754,122.234583 164.697661,121.835002 164.540386,121.363177 C164.383111,120.891352 164.304474,120.088355 164.304474,118.953546 L164.304474,118.953546 L164.322375,117.261882 L164.322375,114.545373 C164.322375,112.870971 164.273147,111.933075 164.17533,111.731047 C164.076873,111.529019 163.764241,111.428005 163.235516,111.428005 L163.235516,111.428005 L162.60322,111.428005 L162.60322,110.867314 C163.820502,110.908231 164.705333,110.929968 165.257714,110.929968 L165.440285,110.929318 C166.012671,110.925429 166.807063,110.904139 167.822062,110.867314 L167.822062,110.867314 L167.822062,111.428005 L167.172504,111.428005 C166.61437,111.428005 166.278722,111.535412 166.165561,111.748948 C166.053039,111.962484 165.996778,112.931068 165.996778,114.652141 L165.996778,114.652141 L165.996778,118.143517 C165.996778,119.420256 166.066465,120.308284 166.205838,120.806961 C166.345212,121.304998 166.705794,121.726955 167.287583,122.070914 C167.869372,122.415513 168.647436,122.588131 169.621134,122.588131 C170.62488,122.588131 171.470712,122.404005 172.15927,122.035751 C172.63493,121.78002 172.982086,121.383636 173.201376,120.846599 C173.421305,120.309563 173.53127,119.289833 173.53127,117.78741 L173.53127,117.78741 L173.53127,114.429655 C173.53127,112.874167 173.461583,111.984861 173.322209,111.761735 C173.182196,111.539888 172.797959,111.428005 172.16886,111.428005 L172.16886,111.428005 L171.705346,111.428005 L171.705346,110.867314 C172.936694,110.908231 173.719232,110.929968 174.052323,110.929968 C174.593834,110.929968 175.266408,110.908231 176.069406,110.867314 L176.069406,110.867314 Z M255.60749,110.689005 C256.201427,110.689005 256.796642,110.752938 257.393136,110.880164 C257.990269,111.008669 258.588042,111.202386 259.187733,111.463872 C259.021507,112.081463 258.932001,112.901083 258.920493,113.922091 L258.920493,113.922091 L258.306098,113.922091 L258.306098,113.20924 C258.306098,112.746365 258.243444,112.431816 258.119414,112.264951 C257.994745,112.099365 257.669326,111.92227 257.143798,111.735586 C256.618269,111.548263 256.064611,111.454921 255.482821,111.454921 C254.532778,111.454921 253.786681,111.695309 253.243252,112.175445 C252.699183,112.655581 252.428107,113.272533 252.428107,114.024384 C252.428107,114.499405 252.539351,114.906658 252.761837,115.24742 C252.984963,115.588822 253.284169,115.834324 253.661373,115.985845 C254.038577,116.136727 254.838378,116.269707 256.061414,116.385426 C257.28445,116.503702 258.111742,116.661616 258.54201,116.85789 C258.972918,117.054164 259.316877,117.368714 259.575166,117.802818 C259.834094,118.235644 259.962599,118.749664 259.962599,119.343601 C259.962599,120.537867 259.463923,121.565269 258.466569,122.427085 C257.468577,123.288261 256.138773,123.718529 254.476517,123.718529 C253.906236,123.718529 253.332119,123.660989 252.752887,123.545271 C252.174294,123.429552 251.590587,123.258852 251.003043,123.033168 C251.109811,122.320956 251.160318,121.406076 251.153925,120.289808 L251.153925,120.289808 L251.760009,120.289808 L251.760009,120.734781 C251.760009,121.311455 251.789418,121.667562 251.848875,121.803739 C251.908333,121.940555 252.048346,122.086322 252.267636,122.2404 C252.593694,122.471838 252.983045,122.648932 253.434411,122.770404 C253.885777,122.891877 254.372946,122.952613 254.895278,122.952613 C256.0173,122.952613 256.883591,122.68857 257.495429,122.160484 C258.106627,121.631759 258.412866,120.961103 258.412866,120.147877 C258.412866,119.672216 258.309295,119.270078 258.101513,118.940824 C257.893091,118.61093 257.602197,118.366067 257.228189,118.205595 C256.854182,118.045124 256.162428,117.924291 255.152927,117.840539 C253.811615,117.733771 252.899932,117.573299 252.419157,117.359763 C251.938381,117.146227 251.561177,116.809301 251.287545,116.348984 C251.01519,115.888667 250.878374,115.317746 250.878374,114.634304 C250.878374,113.476479 251.297135,112.529633 252.134655,111.793126 C252.970898,111.057258 254.129362,110.689005 255.60749,110.689005 Z M218.940057,110.867314 L218.940057,111.428005 L218.58395,111.428005 C218.29881,111.428005 218.092306,111.494495 217.964441,111.628115 C217.837214,111.761735 217.607056,112.236117 217.274605,113.049343 L217.274605,113.049343 L214.272955,120.37925 C213.709067,121.756365 213.308208,122.857928 213.071017,123.683302 L213.071017,123.683302 L212.15294,123.683302 C211.885701,122.887977 211.613347,122.142519 211.33396,121.448208 L211.33396,121.448208 L208.145626,113.476415 C207.688506,112.324984 207.421267,111.695245 207.343908,111.588477 C207.267188,111.481709 207.011457,111.428005 206.577992,111.428005 L206.577992,111.428005 L206.212935,111.428005 L206.212935,110.867314 C207.141241,110.908231 207.930172,110.929968 208.58037,110.929968 C209.265731,110.929968 210.087908,110.908231 211.046901,110.867314 L211.046901,110.867314 L211.046901,111.428005 L210.167185,111.428005 C209.865421,111.428005 209.671065,111.456775 209.582199,111.513675 C209.493332,111.570576 209.449218,111.658803 209.449218,111.778357 C209.449218,111.856356 209.463923,111.943304 209.493332,112.039204 L209.493332,112.039204 L210.646042,115.118212 L213.069738,121.297326 L215.425026,115.406549 C216.21204,113.440613 216.605227,112.291099 216.605227,111.956091 C216.605227,111.686294 216.442198,111.545642 216.117419,111.534134 L216.117419,111.534134 L215.753002,111.507282 L214.988364,111.428005 L214.988364,110.867314 C215.776017,110.908231 216.424936,110.929968 216.933842,110.929968 C217.466403,110.929968 218.135141,110.908231 218.940057,110.867314 L218.940057,110.867314 Z M223.396499,110.867058 L224.340149,110.898385 C224.868874,110.918844 225.269733,110.929712 225.542726,110.929712 L225.542726,110.929712 L228.962497,110.877287 L230.583835,110.867058 C231.135576,110.861304 231.69371,110.882402 232.257598,110.929712 C232.032555,111.634892 231.907246,112.552329 231.883591,113.682023 L231.883591,113.682023 L231.278146,113.682023 C231.278146,113.02799 231.245541,112.4852 231.180329,112.051734 C230.479625,111.790888 229.618448,111.659826 228.59744,111.659826 C227.783574,111.659826 226.931988,111.694989 226.041403,111.766594 C226.047157,112.324089 226.041403,112.880944 226.023502,113.4378 L226.023502,113.4378 L226.005601,114.807242 L226.005601,116.612068 C226.593783,116.652985 227.112918,116.674083 227.564285,116.674083 C228.977202,116.674083 229.777641,116.624855 229.964325,116.527037 C230.151649,116.42922 230.244991,116.124899 230.244991,115.614075 L230.244991,115.614075 L230.244991,115.035483 L230.850435,115.035483 C230.809518,115.931822 230.78842,116.647231 230.78842,117.18171 C230.78842,117.745598 230.809518,118.4105 230.850435,119.176416 L230.850435,119.176416 L230.244991,119.176416 L230.244991,118.660478 C230.244991,118.090197 230.133748,117.741123 229.911261,117.613896 C229.688775,117.486031 228.903039,117.422098 227.555334,117.422098 C227.057297,117.422098 226.54008,117.443196 226.005601,117.484752 L226.005601,117.484752 L226.005601,119.670618 L226.01519,120.928178 C226.01519,121.713274 226.023502,122.287391 226.041403,122.649891 C226.909612,122.715742 227.840475,122.747708 228.833353,122.747708 C229.499533,122.747708 230.058307,122.718938 230.510312,122.659481 C230.801846,122.623678 231.110642,122.546319 231.437979,122.427404 C231.586303,121.905072 231.738463,121.252318 231.892542,120.467861 L231.892542,120.467861 L232.480724,120.467861 C232.320253,121.772092 232.240337,122.641579 232.240337,123.076323 L232.240337,123.076323 L232.257598,123.478461 C231.575434,123.537919 230.904139,123.567967 230.244991,123.567967 L230.244991,123.567967 L228.846778,123.541115 C227.302799,123.49892 226.169269,123.478461 225.444909,123.478461 C224.749958,123.478461 223.826767,123.49892 222.674697,123.541115 L222.674697,123.541115 L222.674697,122.979784 L222.950887,122.979784 C223.467465,122.979784 223.792244,122.929277 223.925863,122.828263 C224.059483,122.727249 224.148989,122.490058 224.193103,122.115412 C224.237856,121.741404 224.260232,120.91667 224.260232,119.63993 L224.260232,119.63993 L224.260232,114.750342 C224.260232,113.948624 224.240413,113.292672 224.202693,112.782488 C224.163694,112.271664 224.122137,111.966704 224.077384,111.869526 C224.033271,111.771069 223.968698,111.694989 223.886225,111.641925 C223.803112,111.588221 223.547381,111.540911 223.11967,111.499994 L223.11967,111.499994 L222.434309,111.427749 L222.434309,110.867058 L223.396499,110.867058 Z M107.710691,110.867058 L108.65498,110.898385 C109.183065,110.918844 109.583925,110.929712 109.856918,110.929712 L109.856918,110.929712 L113.277328,110.877287 L114.898027,110.867058 C115.450407,110.861304 116.007902,110.882402 116.57243,110.929712 C116.346746,111.634892 116.222077,112.552329 116.198422,113.682023 L116.198422,113.682023 L115.592978,113.682023 C115.592978,113.02799 115.560372,112.4852 115.49516,112.051734 C114.794456,111.790888 113.93328,111.659826 112.912271,111.659826 C112.098406,111.659826 111.246819,111.694989 110.356234,111.766594 C110.361349,112.324089 110.356234,112.880944 110.338333,113.4378 L110.338333,113.4378 L110.320432,114.807242 L110.320432,116.612068 C110.907975,116.652985 111.427749,116.674083 111.878476,116.674083 C113.292033,116.674083 114.091833,116.624855 114.279157,116.527037 C114.465841,116.42922 114.559822,116.124899 114.559822,115.614075 L114.559822,115.614075 L114.559822,115.035483 L115.165267,115.035483 C115.12371,115.931822 115.102612,116.647231 115.102612,117.18171 C115.102612,117.745598 115.12371,118.4105 115.165267,119.176416 L115.165267,119.176416 L114.559822,119.176416 L114.559822,118.660478 C114.559822,118.090197 114.448579,117.741123 114.225453,117.613896 C114.002966,117.486031 113.217871,117.422098 111.870165,117.422098 C111.371488,117.422098 110.854271,117.443196 110.320432,117.484752 L110.320432,117.484752 L110.320432,119.670618 L110.329382,120.928178 C110.329382,121.713274 110.338333,122.287391 110.356234,122.649891 C111.224443,122.715742 112.154666,122.747708 113.147544,122.747708 C113.813725,122.747708 114.372499,122.718938 114.824504,122.659481 C115.116038,122.623678 115.425473,122.546319 115.75281,122.427404 C115.901134,121.905072 116.052655,121.252318 116.207373,120.467861 L116.207373,120.467861 L116.794916,120.467861 C116.634444,121.772092 116.554528,122.641579 116.554528,123.076323 L116.554528,123.076323 L116.57243,123.478461 C115.889626,123.537919 115.21897,123.567967 114.559822,123.567967 L114.559822,123.567967 L113.16161,123.541115 C111.61763,123.49892 110.483461,123.478461 109.759101,123.478461 C109.06479,123.478461 108.140959,123.49892 106.989528,123.541115 L106.989528,123.541115 L106.989528,122.979784 L107.265718,122.979784 C107.782296,122.979784 108.107075,122.929277 108.240695,122.828263 C108.374314,122.727249 108.463181,122.490058 108.507934,122.115412 C108.552048,121.741404 108.575064,120.91667 108.575064,119.63993 L108.575064,119.63993 L108.575064,114.750342 C108.575064,113.948624 108.555244,113.292672 108.516885,112.782488 C108.477886,112.271664 108.436969,111.966704 108.392216,111.869526 C108.347463,111.771069 108.28353,111.694989 108.200417,111.641925 C108.117304,111.588221 107.862212,111.540911 107.434501,111.499994 L107.434501,111.499994 L106.74914,111.427749 L106.74914,110.867058 L107.710691,110.867058 Z M287.845397,110.742261 C288.11903,110.843275 288.338959,110.971141 288.505185,111.125219 C288.801834,111.404606 289.256396,112.042656 289.867595,113.040009 C290.128299,113.465518 290.484311,114.089929 290.93552,114.913133 L291.217668,115.43091 C291.511239,115.97254 291.839072,116.585728 292.201146,117.270449 C292.563006,116.723823 293.136484,115.771862 293.919662,114.416484 L293.919662,114.416484 L295.959761,110.867569 L297.340072,110.867569 L297.340072,111.089417 C296.615073,111.904561 295.728324,113.132073 294.677267,114.772591 C293.625571,116.413748 292.996471,117.513394 292.788689,118.072167 C292.717723,118.268441 292.681921,118.768397 292.681921,119.574591 C292.681921,120.647385 292.708773,121.498331 292.762477,122.126152 C292.798279,122.463718 292.858376,122.667664 292.944685,122.735433 C293.030995,122.803841 293.334676,122.860741 293.857647,122.908691 L293.857647,122.908691 L294.534057,122.979657 L294.534057,123.540987 C293.499623,123.498792 292.690872,123.478333 292.107804,123.478333 L292.107804,123.478333 L289.235299,123.540987 L289.235299,122.979657 L289.9961,122.979657 C290.503088,122.979657 290.807409,122.876085 290.908423,122.668943 C291.010715,122.461161 291.061222,121.525183 291.061222,119.859731 C291.061222,119.373202 291.045878,118.843198 291.016469,118.268441 C290.250553,116.863196 289.544095,115.647832 288.897094,114.621709 C288.249453,113.595586 287.703466,112.845653 287.258493,112.371271 C287.014909,112.111064 286.802652,111.938445 286.621083,111.855972 C286.440152,111.772859 286.135832,111.730663 285.70876,111.730663 L285.70876,111.730663 L285.70876,111.169972 C285.952344,111.122662 286.429923,111.028041 287.142136,110.884831 L287.142136,110.884831 Z M268.218062,110.867314 L268.218062,111.428005 L267.528866,111.428005 C267.104991,111.428005 266.839669,111.478512 266.732262,111.579526 C266.624855,111.68054 266.561561,111.936272 266.544299,112.346082 C266.514251,112.980935 266.499546,114.111908 266.499546,115.739 L266.499833,119.107018 C266.504035,121.230128 266.554473,122.403365 266.651706,122.628409 C266.75272,122.862404 267.078139,122.979401 267.627322,122.979401 L267.627322,122.979401 L268.218062,122.979401 L268.218062,123.540732 C267.48667,123.499175 266.689427,123.478717 265.827611,123.478717 C264.821947,123.478717 263.915378,123.499175 263.105988,123.540732 L263.105988,123.540732 L263.105988,122.979401 L263.667319,122.979401 C264.21906,122.979401 264.550232,122.845781 264.660197,122.578542 C264.770161,122.311302 264.824504,121.032005 264.824504,118.74001 L264.824258,115.429762 C264.82048,113.23873 264.773251,112.026497 264.682573,111.793062 C264.587313,111.549478 264.302172,111.428005 263.82779,111.428005 L263.82779,111.428005 L263.105988,111.428005 L263.105988,110.867314 C264.093751,110.908231 265.068728,110.929968 266.032197,110.929968 C266.835194,110.929968 267.564029,110.908231 268.218062,110.867314 L268.218062,110.867314 Z M242.150191,110.840654 C243.176953,110.840654 243.956295,110.94934 244.488217,111.165433 C245.0195,111.382165 245.422916,111.695436 245.699106,112.105246 C245.975296,112.515056 246.113391,113.004143 246.113391,113.574424 C246.113391,114.411945 245.811628,115.15101 245.20938,115.792256 C244.606493,116.433503 243.731891,116.872722 242.586214,117.110553 C243.168003,117.947434 243.889166,118.921132 244.750342,120.031647 L244.750342,120.031647 L246.460547,122.24884 C246.76295,122.62924 246.965617,122.845973 247.065992,122.899676 C247.167006,122.952741 247.270577,122.979593 247.377984,122.979593 L247.377984,122.979593 L247.61006,122.979593 L247.61006,123.540923 C247.116499,123.498728 246.68623,123.478269 246.317977,123.478269 C245.979772,123.478269 245.623026,123.498728 245.249019,123.540923 L245.249019,123.540923 L242.097127,119.283632 C241.508944,118.499815 240.879205,117.733899 240.20791,116.985884 L240.20791,116.985884 L240.297416,116.682842 C240.641375,116.71289 240.897106,116.727595 241.063332,116.727595 C242.054931,116.727595 242.831077,116.471863 243.392407,115.961039 C243.953738,115.451494 244.233764,114.768051 244.233764,113.912629 C244.233764,113.147353 243.996573,112.54958 243.521552,112.118672 C243.04653,111.688404 242.36117,111.47295 241.464191,111.47295 C240.840845,111.47295 240.214303,111.588669 239.585203,111.820106 C239.513599,112.763755 239.478435,113.773895 239.478435,114.847968 L239.478435,114.847968 L239.478745,119.430007 C239.483075,121.349468 239.532895,122.418436 239.629317,122.636912 C239.730331,122.865153 240.057028,122.979593 240.608769,122.979593 L240.608769,122.979593 L241.30372,122.979593 L241.30372,123.540923 C240.317874,123.498728 239.501451,123.478269 238.85445,123.478269 C238.343627,123.478269 237.420436,123.498728 236.084877,123.540923 L236.084877,123.540923 L236.084877,122.979593 L236.752976,122.979593 C237.263161,122.979593 237.566203,122.868349 237.661463,122.645863 C237.756083,122.423376 237.804033,121.252126 237.804033,119.132111 L237.804033,119.132111 L237.804033,114.847968 C237.804033,113.007339 237.749051,111.977381 237.639086,111.757451 C237.529121,111.538162 237.171097,111.428197 236.565653,111.428197 L236.565653,111.428197 L236.084877,111.428197 L236.084877,110.867505 C237.188998,110.908423 238.032273,110.92952 238.614063,110.92952 C239.006611,110.92952 239.569859,110.914816 240.306366,110.884767 C241.161789,110.855358 241.776184,110.840654 242.150191,110.840654 Z M102.928191,110.86725 L102.928191,111.427941 L102.446776,111.427941 C102.019704,111.427941 101.657205,111.509775 101.360556,111.673444 C101.063268,111.836472 100.377907,112.411229 99.3031954,113.396435 L99.3031954,113.396435 L95.9006866,116.522754 L101.974951,122.177618 L102.527331,122.703786 C102.639853,122.816947 102.754293,122.891109 102.870012,122.926273 C102.98573,122.962075 103.177529,122.979337 103.444768,122.979337 L103.444768,122.979337 L103.444768,123.540668 C102.9576,123.499111 102.529889,123.478653 102.161635,123.478653 C101.77612,123.478653 101.354802,123.499111 100.897042,123.540668 L100.897042,123.540668 L94.7607631,117.716381 C94.5529812,117.520107 94.4251154,117.42229 94.3778051,117.42229 C94.2531359,117.42229 94.191121,117.538008 94.191121,117.769445 L94.191121,117.769445 L94.1914355,120.727186 C94.1945799,121.898207 94.2212893,122.542156 94.2710371,122.659033 C94.3611825,122.872569 94.6834043,122.979337 95.2383418,122.979337 L95.2383418,122.979337 L95.9096372,122.979337 L95.9096372,123.540668 C94.9404145,123.499111 94.0811564,123.478653 93.3312235,123.478653 C92.5461276,123.478653 91.701574,123.499111 90.7975629,123.540668 L90.7975629,123.540668 L90.7975629,122.979337 L91.5187259,122.979337 C91.9937474,122.979337 92.2788881,122.892388 92.3741481,122.716573 C92.4687688,122.542036 92.5160791,121.786349 92.5160791,120.450152 L92.5160791,120.450152 L92.5160791,114.492245 C92.5160791,112.858759 92.4687688,111.940683 92.3741481,111.735458 C92.2788881,111.530873 91.9937474,111.427941 91.5187259,111.427941 L91.5187259,111.427941 L90.7975629,111.427941 L90.7975629,110.86725 C91.8863401,110.908806 92.6739934,110.929904 93.1618014,110.929904 L93.2342352,110.929657 C93.629518,110.927187 94.5214942,110.906209 95.9096372,110.86725 L95.9096372,110.86725 L95.9096372,111.427941 L95.2025394,111.454793 C94.7965655,111.472694 94.5401946,111.527677 94.432148,111.61974 C94.3247408,111.711803 94.2582505,111.894651 94.2313987,112.167006 C94.2081271,112.404154 94.1949399,113.026428 94.191837,114.035078 L94.191121,116.931924 L94.3157901,116.931924 C94.8023195,116.534262 95.22108,116.171123 95.5714322,115.841229 C95.9217845,115.511975 96.4971806,114.934021 97.2988991,114.108648 L97.2988991,114.108648 L99.8287238,111.490595 L99.8287238,110.86725 C100.481479,110.908806 101.022351,110.929904 101.449423,110.929904 C101.895035,110.929904 102.387318,110.908806 102.928191,110.86725 L102.928191,110.86725 Z M127.447671,110.769624 L131.954301,121.252062 C132.257343,121.964274 132.458731,122.393264 132.559745,122.539031 C132.660759,122.684159 132.776478,122.78773 132.90754,122.850384 C133.037963,122.913038 133.331415,122.955874 133.789175,122.979529 L133.789175,122.979529 L133.789175,123.54086 C133.016865,123.499303 132.280998,123.478205 131.580293,123.478205 C130.926899,123.478205 130.057412,123.499303 128.970553,123.54086 L128.970553,123.54086 L128.970553,122.979529 L129.852187,122.926464 C130.167376,122.902809 130.35406,122.869564 130.413518,122.828647 C130.503024,122.762796 130.547138,122.679683 130.547138,122.578669 C130.547138,122.471901 130.458271,122.193154 130.279898,121.741788 L130.279898,121.741788 L129.303004,119.266306 L124.150651,119.266306 L123.547125,120.699682 C123.148823,121.649724 122.949992,122.231514 122.949992,122.44505 C122.949992,122.581866 122.987073,122.679683 123.061235,122.739141 C123.135397,122.798599 123.323999,122.845909 123.627041,122.881711 L123.627041,122.881711 L124.481824,122.979529 L124.481824,123.54086 C123.911542,123.499303 123.270295,123.478205 122.558083,123.478205 C121.7033,123.478205 120.952089,123.499303 120.305088,123.54086 L120.305088,123.54086 L120.305088,122.979529 L120.572327,122.970578 C120.987891,122.95907 121.256409,122.916235 121.378521,122.841434 C121.499354,122.767271 121.629138,122.585063 121.765315,122.294168 C122.187272,121.438746 122.617541,120.516194 123.05676,119.523956 L123.05676,119.523956 L125.506029,113.97522 C126.159423,112.502845 126.604396,111.434526 126.842226,110.769624 L126.842226,110.769624 L127.447671,110.769624 Z M282.346337,110.867442 C282.233176,111.870549 282.168604,112.838493 282.150703,113.770634 L282.150703,113.770634 L281.589372,113.770634 L281.500505,112.603859 C281.464703,112.200442 281.414196,111.961333 281.348984,111.887171 C281.283133,111.81237 281.138006,111.766977 280.912322,111.749076 C280.259568,111.701766 279.516667,111.677471 278.686179,111.677471 L278.686179,111.677471 L277.991228,111.677471 C277.925378,112.568057 277.892772,113.506591 277.892772,114.492437 L277.892772,114.492437 L277.892772,119.568709 C277.892772,121.456647 277.940721,122.497475 278.035981,122.690552 C278.130602,122.883629 278.469446,122.979529 279.051236,122.979529 L279.051236,122.979529 L279.719335,122.979529 L279.719335,123.54086 C278.667638,123.499303 277.777693,123.478205 277.04694,123.478205 C276.311072,123.478205 275.426241,123.499303 274.393085,123.54086 L274.393085,123.54086 L274.393085,122.979529 L275.1411,122.979529 C275.533009,122.979529 275.788101,122.927743 275.907016,122.824172 C276.025292,122.719961 276.100093,122.516655 276.130142,122.213613 C276.18896,121.519301 276.219009,120.622962 276.219009,119.523956 L276.219009,119.523956 L276.219009,114.438733 C276.219009,113.434987 276.197911,112.514992 276.156994,111.677471 L276.156994,111.677471 L274.999003,111.67783 C273.694504,111.68165 272.972722,111.716019 272.833122,111.780403 C272.685437,111.848172 272.58762,112.114133 272.54031,112.577647 L272.54031,112.577647 L272.415641,113.770634 L271.854949,113.770634 L271.872211,112.711266 C271.872211,112.283555 271.837048,111.66916 271.765443,110.867442 C274.734179,110.905328 276.570496,110.926222 277.273886,110.92911 L277.420947,110.929456 Z M202.709348,110.867314 L202.709348,111.428005 L202.020152,111.428005 C201.596277,111.428005 201.330955,111.478512 201.223548,111.579526 C201.11614,111.68054 201.052847,111.936272 201.035585,112.346082 C201.005537,112.980935 200.990832,114.111908 200.990832,115.739 L200.990832,115.739 L200.990832,118.811615 C200.990832,121.121511 201.041339,122.393136 201.142992,122.628409 C201.244006,122.862404 201.569425,122.979401 202.118608,122.979401 L202.118608,122.979401 L202.709348,122.979401 L202.709348,123.540732 C201.977956,123.499175 201.180713,123.478717 200.318897,123.478717 C199.313233,123.478717 198.406664,123.499175 197.597274,123.540732 L197.597274,123.540732 L197.597274,122.979401 L198.158605,122.979401 C198.710346,122.979401 199.041518,122.845781 199.151483,122.578542 C199.261447,122.311302 199.31579,121.032005 199.31579,118.74001 L199.315544,115.429762 C199.311765,113.23873 199.264537,112.026497 199.173859,111.793062 C199.078599,111.549478 198.793458,111.428005 198.319076,111.428005 L198.319076,111.428005 L197.597274,111.428005 L197.597274,110.867314 C198.585037,110.908231 199.560014,110.929968 200.523483,110.929968 C201.32648,110.929968 202.055315,110.908231 202.709348,110.867314 L202.709348,110.867314 Z M126.727147,113.185009 L124.482463,118.535553 L128.969274,118.535553 L126.727147,113.185009 Z M102.284322,70.8008874 C106.552483,70.8008874 109.247893,72.073152 111.869142,74.2449525 L111.869142,74.2449525 L110.596238,75.7051798 C108.53696,73.9080261 106.140755,72.5603207 102.1718,72.5603207 C95.8066413,72.5603207 91.3511578,77.9517818 91.3511578,84.2792205 L91.3511578,84.2792205 L91.3511578,84.354022 C91.3511578,91.130909 95.5822369,96.1854438 102.583528,96.1854438 C105.915711,96.1854438 109.023489,94.8000179 110.933165,93.1901876 L110.933165,93.1901876 L110.933165,85.6646464 L102.1718,85.6646464 L102.1718,83.8674927 L112.80512,83.8674927 L112.80512,93.9765622 C110.445996,96.0729219 106.776887,97.907796 102.508727,97.907796 C94.2338921,97.907796 89.3295997,91.8047617 89.3295997,84.4288235 L89.3295997,84.4288235 L89.3295997,84.354022 C89.3295997,77.2779291 94.4589359,70.8008874 102.284322,70.8008874 Z M286.872339,70.8753053 C290.69169,70.8753053 293.199778,71.9238048 295.858747,74.0578848 L295.858747,74.0578848 L294.622924,75.5929137 C292.151917,73.4588336 289.680911,72.6347386 286.797537,72.6347386 C282.941744,72.6347386 280.395297,74.8442595 280.395297,77.5773908 L280.395297,77.5773908 L280.395297,77.6521923 C280.395297,80.423044 281.817804,82.1076758 288.032721,83.3805797 C294.098674,84.6164026 296.644482,86.7882031 296.644482,90.606915 L296.644482,90.606915 L296.644482,90.6817165 C296.644482,94.9127955 293.012454,97.8326109 287.957919,97.8326109 C283.7652,97.8326109 280.5449,96.4478244 277.400041,93.6392522 L277.400041,93.6392522 L278.672945,92.1796642 C281.556318,94.8373547 284.214009,96.0731776 288.070441,96.0731776 C292.001675,96.0731776 294.697725,93.864296 294.697725,90.8690399 L294.697725,90.8690399 L294.697725,90.7942384 C294.697725,88.0233867 293.237498,86.4135563 287.284706,85.2154539 C280.994348,83.9425499 278.447901,81.8084698 278.447901,77.8395156 L278.447901,77.8395156 L278.447901,77.7647142 C278.447901,73.8705615 282.005127,70.8753053 286.872339,70.8753053 Z M246.752529,71.250016 L246.752529,97.4586674 L244.805772,97.4586674 L244.805772,71.250016 L246.752529,71.250016 Z M228.819607,71.2498881 C234.473193,71.2498881 238.179383,74.3199458 238.179383,78.7006278 L238.179383,78.7006278 L238.179383,78.7754293 C238.179383,83.1561113 234.922002,85.6648382 230.504239,86.2638894 L230.504239,86.2638894 L239.153081,97.4585395 L236.682074,97.4585395 L228.332438,86.6008158 L219.758398,86.6008158 L219.758398,97.4585395 L217.811641,97.4585395 L217.811641,71.2498881 Z M212.161955,71.2498881 L212.161955,73.0470418 L195.463322,73.0470418 L195.463322,83.3434347 L210.477323,83.3434347 L210.477323,85.1405884 L195.463322,85.1405884 L195.463322,95.6613858 L212.349278,95.6613858 L212.349278,97.4585395 L193.516565,97.4585395 L193.516565,71.2498881 L212.161955,71.2498881 Z M273.312172,71.2498881 L273.312172,73.0470418 L256.613538,73.0470418 L256.613538,83.3434347 L271.62754,83.3434347 L271.62754,85.1405884 L256.613538,85.1405884 L256.613538,95.6613858 L273.499495,95.6613858 L273.499495,97.4585395 L254.666782,97.4585395 L254.666782,71.2498881 L273.312172,71.2498881 Z M130.944417,71.0627565 L143.149846,97.4587313 L141.015766,97.4587313 L137.683583,90.1198742 L122.220134,90.1198742 L118.888591,97.4587313 L116.866393,97.4587313 L129.072462,71.0627565 L130.944417,71.0627565 Z M150.251512,71.2498881 L150.251512,95.6613858 L165.64016,95.6613858 L165.64016,97.4585395 L148.304755,97.4585395 L148.304755,71.2498881 L150.251512,71.2498881 Z M172.857481,71.2498881 L172.857481,95.6613858 L188.246129,95.6613858 L188.246129,97.4585395 L170.910724,97.4585395 L170.910724,71.2498881 L172.857481,71.2498881 Z M129.970719,73.1968366 L123.044229,88.3604409 L136.860128,88.3604409 L129.970719,73.1968366 Z M228.707085,73.0470418 L219.758398,73.0470418 L219.758398,84.8407432 L228.594563,84.8407432 C232.975245,84.8407432 236.232626,82.6318616 236.232626,78.8502308 L236.232626,78.8502308 L236.232626,78.7754293 C236.232626,75.2559234 233.462414,73.0470418 228.707085,73.0470418 L228.707085,73.0470418 Z M105.800951,50.0002557 L105.800951,51.2789137 L76.2786579,51.2789137 L76.2786579,75.6795428 L75,75.6795428 L75,50.0002557 L105.800951,50.0002557 Z M311.551715,50 L311.551715,75.5731584 L310.282049,75.5731584 L310.282049,51.2733734 L280.224596,51.2733734 L280.224596,50 L311.551715,50 Z" id="logo"></path>
            </g>
        </g>
    </g>
</svg>