<?xml version="1.0" encoding="UTF-8"?>
<svg width="19px" height="20px" viewBox="0 0 19 20" version="1.1" xmlns="http://www.w3.org/2000/svg" xmlns:xlink="http://www.w3.org/1999/xlink">
    <title>Shape</title>
    <g id="home" stroke="none" stroke-width="1" fill="none" fill-rule="evenodd">
        <g id="Home-2,-approved" transform="translate(-1346.000000, -258.000000)" fill="#FFFFFF" fill-rule="nonzero">
            <g id="topnav" transform="translate(0.000000, 137.000000)">
                <g id="Group" transform="translate(1138.000000, 110.000000)">
                    <path d="M226.644859,30.162 L220.772143,23.678 C222.095308,22.277 222.822603,20.445 222.822603,18.5 C222.822603,16.497 222.051828,14.613 220.651586,13.197 C219.251344,11.781 217.390613,11 215.411302,11 C213.43199,11 211.570271,11.78 210.171017,13.197 C208.771764,14.614 208,16.497 208,18.5 C208,20.503 208.770775,22.387 210.171017,23.803 C211.571259,25.219 213.43199,26 215.411302,26 C217.116889,26 218.733541,25.421 220.043859,24.355 L225.916575,30.838 C226.014404,30.946 226.146819,31 226.281211,31 C226.40078,31 226.520349,30.957 226.615213,30.869 C226.816801,30.682 226.829647,30.366 226.645847,30.163 L226.644859,30.162 Z M208.987185,18.5 C208.987185,14.916 211.868699,12 215.410313,12 C218.951928,12 221.833442,14.916 221.833442,18.5 C221.833442,22.084 218.951928,25 215.410313,25 C211.868699,25 208.987185,22.084 208.987185,18.5 Z" id="Shape"></path>
                </g>
            </g>
        </g>
    </g>
</svg>