<?xml version="1.0" encoding="UTF-8"?>
<svg width="25px" height="20px" viewBox="0 0 25 20" version="1.1" xmlns="http://www.w3.org/2000/svg" xmlns:xlink="http://www.w3.org/1999/xlink">
    <title>icon_twitter</title>
    <g id="home" stroke="none" stroke-width="1" fill="none" fill-rule="evenodd">
        <g id="Home-2,-approved" transform="translate(-1171.000000, -5686.000000)" fill="#101820">
            <g id="footer" transform="translate(0.000000, 5586.000000)">
                <g id="social" transform="translate(1138.000000, 100.000000)">
                    <path d="M57.3969981,2.36714604 C56.4986029,2.77012997 55.5346202,3.04083673 54.5218283,3.16388526 C55.5559743,2.53941398 56.3475993,1.55041144 56.7228204,0.370683688 C55.7542618,0.950549873 54.6819836,1.37045297 53.5425927,1.59655464 C52.6304699,0.612166423 51.3278731,0 49.8895255,0 C47.1226512,0 44.8820016,2.2625548 44.8820016,5.04960394 C44.8820016,5.44643544 44.926235,5.83096209 45.0116512,6.20010767 C40.8506627,5.98938706 37.1609885,3.98061986 34.6900203,0.924402061 C34.261414,1.67038376 34.0143172,2.53787587 34.0143172,3.46381604 C34.0143172,5.21571945 35.1704863,6.75997847 36.5142659,7.66592325 C35.6921351,7.63977544 34.5176626,7.41059755 34.5176626,7.03222333 L34.5176626,7.09836192 C34.5176626,9.5439514 35.971263,11.5834807 38.2607219,12.049527 C37.8397421,12.1633469 37.2631829,12.2264093 36.8055961,12.2264093 C36.4822349,12.2264093 36.1024379,12.1941091 35.7943295,12.1325848 C36.4319003,14.1398139 38.2469943,15.599477 40.4373093,15.6410059 C38.7244098,16.9930016 36.5478223,17.8005076 34.203453,17.8005076 C33.7977262,17.8005076 33.3919993,17.7758979 33,17.7312928 C35.216245,19.1617319 37.8427927,20 40.6706786,20 C49.881899,20 54.9138276,12.3063908 54.9138276,5.63408444 C54.9138276,5.4141352 54.9077264,5.19572406 54.8970494,4.97885103 C55.8778102,4.26824579 56.725871,3.37922018 57.3969981,2.36714604 Z" id="icon_twitter"></path>
                </g>
            </g>
        </g>
    </g>
</svg>