<?xml version="1.0" encoding="UTF-8"?>
<svg width="12px" height="21px" viewBox="0 0 12 21" version="1.1" xmlns="http://www.w3.org/2000/svg" xmlns:xlink="http://www.w3.org/1999/xlink">
    <title>icon_phone</title>
    <g id="home" stroke="none" stroke-width="1" fill="none" fill-rule="evenodd">
        <g id="Home-2,-approved" transform="translate(-356.000000, -5743.000000)" fill="#101820" fill-rule="nonzero">
            <g id="footer" transform="translate(0.000000, 5586.000000)">
                <g id="Group-9" transform="translate(352.000000, 100.000000)">
                    <path d="M14.4699399,57 C15.2874421,57 15.9527129,57.6744469 15.9527129,58.503225 L15.9527129,75.539775 C15.9527129,76.368553 15.2874421,77.043 14.4699399,77.043 L5.57330219,77.043 C4.75580003,77.043 4.09052923,76.368553 4.09052923,75.539775 L4.09052923,58.503225 C4.09052923,57.6744469 4.75580003,57 5.57330219,57 L14.4699399,57 Z M14.4699399,58.00215 L5.57330219,58.00215 C5.30047196,58.00215 5.07904453,58.2266316 5.07904453,58.503225 L5.07904453,75.539775 C5.07904453,75.8163684 5.30047196,76.04085 5.57330219,76.04085 L14.4699399,76.04085 C14.7427702,76.04085 14.9641976,75.8163684 14.9641976,75.539775 L14.9641976,58.503225 C14.9641976,58.2266316 14.7427702,58.00215 14.4699399,58.00215 Z M10.5329221,74.1797143 C10.8151602,74.1797143 11.0442231,74.3629646 11.0442231,74.5887551 C11.0442231,74.8145456 10.8151602,74.9977959 10.5329221,74.9977959 L9.51032004,74.9977959 C9.22808188,74.9977959 8.99901902,74.8145456 8.99901902,74.5887551 C8.99901902,74.3629646 9.22808188,74.1797143 9.51032004,74.1797143 L10.5329221,74.1797143 Z M13.3962078,59.0452041 C13.678446,59.0452041 13.9075088,59.2677223 13.9075088,59.5418965 L13.9075088,72.4558994 C13.9075088,72.7300736 13.678446,72.9525918 13.3962078,72.9525918 L6.23799351,72.9525918 C5.95575535,72.9525918 5.72669249,72.7300736 5.72669249,72.4558994 L5.72669249,59.5418965 C5.72669249,59.2677223 5.95575535,59.0452041 6.23799351,59.0452041 L13.3962078,59.0452041 Z M12.8849068,60.0385889 L6.74929453,60.0385889 L6.74929453,71.959207 L12.8849068,71.959207 L12.8849068,60.0385889 Z" id="icon_phone"></path>
                </g>
            </g>
        </g>
    </g>
</svg>