<?xml version="1.0" encoding="UTF-8"?>
<svg width="36px" height="36px" viewBox="0 0 36 36" version="1.1" xmlns="http://www.w3.org/2000/svg" xmlns:xlink="http://www.w3.org/1999/xlink">
    <title>icon_playvideo</title>
    <g id="home" stroke="none" stroke-width="1" fill="none" fill-rule="evenodd">
        <g id="Home-2,-mobile-approved" transform="translate(-142.000000, -5457.000000)" fill="#FFFFFF" fill-rule="nonzero">
            <g id="teaser-artist-in-res-copy" transform="translate(0.000000, 5404.000000)">
                <g id="teaser" transform="translate(25.000000, 0.000000)">
                    <path d="M135,53 C139.808842,53 144.327789,54.872 147.728842,58.2730526 C151.129895,61.6741053 153,66.1930526 153,71.0018947 C153,75.8107368 151.128,80.3296842 147.728842,83.7288421 C144.329684,87.128 139.808842,89 135,89 C130.191158,89 125.672211,87.128 122.271158,83.7288421 C118.870105,80.3296842 117,75.8088421 117,71.0018947 C117,66.1930526 118.872,61.6741053 122.271158,58.2730526 C125.670316,54.872 130.191158,53 135,53 Z M135,54.8947368 C126.119368,54.8947368 118.894737,62.1193684 118.894737,71 C118.894737,79.8806316 126.119368,87.1052632 135,87.1052632 C143.880632,87.1052632 151.105263,79.8806316 151.105263,71 C151.105263,62.1193684 143.880632,54.8947368 135,54.8947368 Z M130.202609,60.1888314 L145.506957,69.7938669 C145.786261,69.9686786 145.956522,70.2779607 145.956522,70.6083739 C145.956522,70.9387872 145.786261,71.2480693 145.506957,71.4228809 L130.202609,81.0279165 C130.047652,81.1258879 129.871652,81.173913 129.695652,81.173913 C129.53687,81.173913 129.376174,81.1335719 129.232696,81.0528896 C128.928522,80.883841 128.73913,80.5611118 128.73913,80.2134095 L128.73913,61.0033384 C128.73913,60.6537151 128.928522,60.3329069 129.232696,60.1638583 C129.53687,59.9948096 129.908,60.0044147 130.202609,60.1888314 Z M130.652174,62.7360868 L130.652174,78.4806611 L143.196,70.6083739 L130.652174,62.7360868 Z" id="icon_playvideo"></path>
                </g>
            </g>
        </g>
    </g>
</svg>