<?xml version="1.0" encoding="UTF-8"?>
<svg width="20px" height="13px" viewBox="0 0 20 13" version="1.1" xmlns="http://www.w3.org/2000/svg" xmlns:xlink="http://www.w3.org/1999/xlink">
    <title>icon_mail</title>
    <g id="home" stroke="none" stroke-width="1" fill="none" fill-rule="evenodd">
        <g id="Home-2,-approved" transform="translate(-352.000000, -5782.000000)" fill="#101820" fill-rule="nonzero">
            <g id="footer" transform="translate(0.000000, 5586.000000)">
                <g id="Group-9" transform="translate(352.000000, 100.000000)">
                    <path d="M18.2425406,96.141171 L1.56364633,96.141171 C0.701555988,96.141171 -4.74287276e-13,96.8414561 -4.74287276e-13,97.7019846 L-4.74287276e-13,107.066866 C-4.74287276e-13,107.927395 0.701555988,108.62768 1.56364633,108.62768 L18.2425406,108.62768 C19.1046309,108.62768 19.8061869,107.927395 19.8061869,107.066866 L19.8061869,97.7019846 C19.8061869,96.8414561 19.1046309,96.141171 18.2425406,96.141171 Z M18.2425406,97.1817134 C18.2738135,97.1817134 18.3030016,97.1848351 18.333232,97.1900378 L10.4816426,102.414601 C10.1793376,102.615426 9.62789169,102.615426 9.32558674,102.414601 L1.47399728,97.1900378 C1.50318534,97.1848351 1.53341584,97.1817134 1.56468876,97.1817134 L18.243583,97.1817134 L18.2425406,97.1817134 Z M18.2425406,107.587138 L1.56364633,107.587138 C1.27593541,107.587138 1.04243089,107.354056 1.04243089,107.066866 L1.04243089,98.1535801 L8.74703759,103.280333 C9.0712336,103.495725 9.48716352,103.603941 9.90309345,103.603941 C10.3190234,103.603941 10.7349533,103.495725 11.0591493,103.280333 L18.763756,98.1535801 L18.763756,107.066866 C18.763756,107.354056 18.5302515,107.587138 18.2425406,107.587138 Z" id="icon_mail"></path>
                </g>
            </g>
        </g>
    </g>
</svg>