<?xml version="1.0" encoding="UTF-8"?>
<svg width="10px" height="7px" viewBox="0 0 10 7" version="1.1" xmlns="http://www.w3.org/2000/svg" xmlns:xlink="http://www.w3.org/1999/xlink">
  <title>icon_menu</title>
  <g id="home" stroke="none" stroke-width="1" fill="none" fill-rule="evenodd">
      <g id="Home-2,-mobile-approved" transform="translate(-243.000000, -159.000000)" fill="#101820">
          <g id="topnav-1" transform="translate(0.000000, 130.000000)">
              <g id="menu-link,-closed" transform="translate(243.000000, 25.000000)">
                  <path d="M9.5,10 C9.77614237,10 10,10.2238576 10,10.5 C10,10.7761424 9.77614237,11 9.5,11 L0.5,11 C0.223857625,11 3.38176876e-17,10.7761424 0,10.5 C-3.38176876e-17,10.2238576 0.223857625,10 0.5,10 L9.5,10 Z M9.5,7 C9.77614237,7 10,7.22385763 10,7.5 C10,7.77614237 9.77614237,8 9.5,8 L0.5,8 C0.223857625,8 3.38176876e-17,7.77614237 0,7.5 C-3.38176876e-17,7.22385763 0.223857625,7 0.5,7 L9.5,7 Z M9.5,4 C9.77614237,4 10,4.22385763 10,4.5 C10,4.77614237 9.77614237,5 9.5,5 L0.5,5 C0.223857625,5 3.38176876e-17,4.77614237 0,4.5 C-3.38176876e-17,4.22385763 0.223857625,4 0.5,4 L9.5,4 Z" id="icon_menu"></path>
              </g>
          </g>
      </g>
  </g>
</svg>