<?xml version="1.0" encoding="UTF-8"?>
<svg width="39px" height="28px" viewBox="0 0 39 28" version="1.1" xmlns="http://www.w3.org/2000/svg" xmlns:xlink="http://www.w3.org/1999/xlink">
    <title>Path</title>
    <g id="home" stroke="none" stroke-width="1" fill="none" fill-rule="evenodd">
        <g id="Home-2,-approved" transform="translate(-1198.000000, -1330.000000)" fill="#101820" fill-rule="nonzero">
            <g id="featured-exhibitions-copy" transform="translate(179.000000, 1042.000000)">
                <g id="Group-3" transform="translate(691.000000, 176.000000)">
                    <path d="M351.835999,113.052761 C351.355923,113.641553 351.390214,114.51128 351.938873,115.059938 L361.376,124.497 L329.999932,124.497689 C329.171827,124.497689 328.5,125.169517 328.5,125.997622 L328.506869,126.142031 C328.579579,126.902441 329.220539,127.497554 329.999932,127.497554 L361.377,127.497 L351.938873,136.935305 C351.353637,137.520541 351.353637,138.471081 351.938873,139.056317 C352.224048,139.341492 352.604808,139.494744 353.000378,139.494744 C353.393953,139.494744 353.774482,139.340795 354.060066,139.058125 L366.061073,127.057127 C366.647076,126.471125 366.646145,125.519188 366.057256,124.936308 L354.059884,112.938927 C353.474648,112.353691 352.524109,112.353691 351.938873,112.938927 L351.835999,113.052761 Z" id="Path"></path>
                </g>
            </g>
        </g>
    </g>
</svg>